<svg xmlns="http://www.w3.org/2000/svg" width="32" height="32" viewBox="0 0 32 32">
    <path fill="#1A1A1A" fill-rule="evenodd" d="M24.396 10.371l-.896.896-2.793-2.793.895-.896A1.962 1.962 0 0 1 23 7c.526 0 1.023.205 1.395.578.372.373.578.87.578 1.396 0 .527-.206 1.023-.578 1.396l.002.001zM11.726 23.043l-4.39 1.596 1.596-4.389 11.07-11.068 2.791 2.793-11.068 11.068zM25.104 6.871A2.953 2.953 0 0 0 23 6.001c-.794 0-1.541.308-2.104.87l-12.75 12.75a.472.472 0 0 0-.116.183l-2 5.5a.496.496 0 0 0 .47.67c.056 0 .115-.01.17-.03l5.5-2a.501.501 0 0 0 .184-.116l12.75-12.75a2.951 2.951 0 0 0 .87-2.104c0-.795-.308-1.542-.87-2.104v.001z"/>
</svg>
