<?xml version="1.0" encoding="utf-8"?>
<!-- Generator: Adobe Illustrator 21.0.0, SVG Export Plug-In . SVG Version: 6.00 Build 0)  -->
<svg version="1.1" id="Layer_1" xmlns="http://www.w3.org/2000/svg" xmlns:xlink="http://www.w3.org/1999/xlink" x="0px" y="0px"
	 viewBox="0 0 32 32" style="enable-background:new 0 0 32 32;" xml:space="preserve">
<style type="text/css">
	.st0{fill:none;}
	.st1{fill:#1A1A1A;}
</style>
<title>801404A4-8AB5-4FD0-B124-CFD5092BA213</title>
<desc>Created with sketchtool.</desc>
<g id="ic-toolbar-_x2F_-color">
	<polygon id="Shape" class="st0" points="0,0 32,0 32,32 0,32 	"/>
	<path id="Fill-1" class="st1" d="M5.7,7.3c0-1,0.8-1.8,1.7-1.8s1.7,0.8,1.7,1.8S8.4,9,7.4,9S5.7,8.2,5.7,7.3z"/>
	<path id="Fill-3" class="st1" d="M2.3,10.8C2.3,9.8,3.1,9,4,9s1.7,0.8,1.7,1.8S4.9,12.5,4,12.5S2.3,11.7,2.3,10.8z"/>
	<path id="Fill-5" class="st1" d="M10.3,6.1c0-1,0.8-1.8,1.7-1.8c0.9,0,1.7,0.8,1.7,1.8S12.9,7.8,12,7.8C11.1,7.8,10.3,7,10.3,6.1z"
		/>
	<path id="Fill-10" class="st1" d="M10.3,16c0-1.3,1-2.3,2.3-2.3s2.3,1,2.3,2.3s-1,2.3-2.3,2.3S10.3,17.3,10.3,16z"/>
	<path id="Fill-7" class="st1" d="M11.4,3.2c-5.7,0-10.3,3.9-10.3,8.8s4.6,8.7,10.3,8.7c1.6,0,2.8-0.2,3.8-0.6
		c0.7-0.3,1.3-0.7,1.6-1.2c0.7-1.1,0.2-2.7-0.3-3.7c-1.1-2.3-0.1-3.3,0.4-3.6c0.3-0.2,0.6-0.3,0.9-0.3c0.5,0,1.3,0.2,2.1,1.4
		c0.4,0.7,0.9,0.9,1.1,0.9c0.4,0,0.7-0.7,0.7-1.8C21.7,7.1,17.1,3.2,11.4,3.2L11.4,3.2z M11.4,21.8c-3,0-5.9-1-8-2.9
		c-1.1-0.9-1.9-2-2.5-3.2C0.3,14.6,0,13.3,0,11.9S0.3,9.3,0.9,8c0.6-1.2,1.4-2.2,2.5-3.2C5.5,3,8.4,2,11.4,2s5.9,1,8,2.9
		c1.1,0.9,1.9,2,2.5,3.2c0.6,1.2,0.9,2.5,0.9,3.9c0,2.2-0.9,2.9-1.8,2.9c-0.7,0-1.5-0.5-2.1-1.4c-0.4-0.6-0.8-0.9-1.1-0.9
		c-0.1,0-0.2,0-0.3,0.1c-0.6,0.4-0.3,1.5,0,2c0.9,1.9,1,3.6,0.2,4.9C16.8,21.1,14.7,21.8,11.4,21.8L11.4,21.8z"/>
</g>
</svg>
