<svg xmlns="http://www.w3.org/2000/svg" width="32" height="32" viewBox="0 0 32 32">
    <g fill="none" fill-rule="evenodd">
        <path d="M0 0h32v32H0z"/>
        <path fill="#1A1A1A" d="M28.848 17.719a16.402 16.402 0 0 0-5.554-4.888A15.317 15.317 0 0 0 16 11c-4.334 0-8.459 1.823-11.47 5.043V11.8c0-.443-.343-.8-.765-.8-.423 0-.765.357-.765.8v6.4c0 .442.342.8.765.8h6.118c.422 0 .765-.358.765-.8 0-.443-.343-.8-.765-.8H5.405c2.743-3.059 6.569-4.8 10.595-4.8 4.612 0 8.85 2.216 11.622 6.079.152.208.38.32.614.32.16 0 .32-.053.457-.16a.823.823 0 0 0 .153-1.12h.002z"/>
    </g>
</svg>
